# xmcd CD database file
#
# Track frame offsets:
#	150
#	17628
#	33505
#	51094
#	70569
#	88306
#	106991
#	125964
#	143401
#	159174
#	173691
#
# Disc length: 2555 seconds
#
# Revision: 5
# Processed by: cddbd v1.5.2PL0 Copyright (c) Steve Scherf et al.
# Submitted via: CDex 2.01
#
DISCID=8909f90b
DTITLE=Joe Cocker - Fire It Up
DYEAR=2012
DGENRE=Classic Rock
TTITLE0=Fire It Up
TTITLE1=I'll Be Your Doctor
TTITLE2=You Love Me Back
TTITLE3=I Come in Peace
TTITLE4=You Don't Need a Million Dollars
TTITLE5=Eye on the Prize
TTITLE6=Younger
TTITLE7=You Don't Know What You're Doing to Me
TTITLE8=The Letting Go
TTITLE9=I'll Walk in the Sunshine Again
TTITLE10=Weight of the World
EXTD=YEAR: 2012
EXTT0=
EXTT1=
EXTT2=
EXTT3=
EXTT4=
EXTT5=
EXTT6=
EXTT7=
EXTT8=
EXTT9=
EXTT10=
PLAYORDER=
